PathFileType	4	(X/Y/Z)	Run_500 01
DataRate	CameraRate	NumFrames	NumMarkers	Units	OrigDataRate	OrigDataStartFrame	OrigNumFrames
120	120	4	41	mm	120	121	128
Frame#	Time	RASI			LPSI			RPSI			RTH3			LTH1			LTH2			LTH3			RTB1			RTB2			RTB3			LTB1			LTB2			LTB3			RCAL			RTOE			RMT5			LCAL			LTOE			LMT5			LACR			RACR			CLAV			C7			RUA1			RUA2			RUA3			RLEL			LUA1			LUA2			LUA3			LLEL			LMEL			RFAsuperior			RFAradius			RFAulna			LFAsuperior			LFAradius			LFAulna			LASI			RTH1			RMEL			
		X1	Y1	Z1	X2	Y2	Z2	X3	Y3	Z3	X4	Y4	Z4	X5	Y5	Z5	X6	Y6	Z6	X7	Y7	Z7	X8	Y8	Z8	X9	Y9	Z9	X10	Y10	Z10	X11	Y11	Z11	X12	Y12	Z12	X13	Y13	Z13	X14	Y14	Z14	X15	Y15	Z15	X16	Y16	Z16	X17	Y17	Z17	X18	Y18	Z18	X19	Y19	Z19	X20	Y20	Z20	X21	Y21	Z21	X22	Y22	Z22	X23	Y23	Z23	X24	Y24	Z24	X25	Y25	Z25	X26	Y26	Z26	X27	Y27	Z27	X28	Y28	Z28	X29	Y29	Z29	X30	Y30	Z30	X31	Y31	Z31	X32	Y32	Z32	X33	Y33	Z33	X34	Y34	Z34	X35	Y35	Z35	X36	Y36	Z36	X37	Y37	Z37	X38	Y38	Z38	X39	Y39	Z39	X40	Y40	Z40	X41	Y41	Z41	

120	1.241667	1025.124565	991.597121	-208.636803	851.596365	1047.271251	-362.355441	857.504997	1052.790012	-266.362519	790.827003	605.036613	-197.956853	1008.941863	832.956136	-497.13204	1108.940413	759.820379	-473.12799	1103.012725	638.102447	-433.457585	620.055372	469.212033	-262.875022	557.062249	503.110693	-197.912868	491.858058	477.64037	-258.478157	1234.448002	459.540108	-349.533248	1222.585696	376.061796	-423.676424	1270.569695	295.073448	-345.595663	345.30179	577.073349	-247.699495	278.503119	382.982196	-303.384586	252.555377	399.659622	-211.754046	1225.450694	114.656823	-348.389276	1404.425287	213.701326	-304.596399	1416.742914	183.230677	-389.586783	940.934219	1468.693785	-512.175624	1010.485168	1471.200222	-135.830739	1028.863777	1456.494836	-312.677582	902.735166	1514.400202	-325.875715	977.429022	1345.108703	-64.86765699999999	901.8731749999999	1340.816042	-58.22958	951.170146	1272.942748	-20.185484	925.552827	1206.612835	5.481036	837.78786	1389.054869	-568.021026	763.538445	1377.248877	-543.7432690000001	793.341254	1316.498504	-590.025526	717.081337	1274.039904	-608.126037	690.415676	1278.635783	-525.7874409999999	1019.925027	1159.007064	-66.55165	1072.640258	1121.061219	-169.435779	1081.414475	1068.148873	-123.249395	803.806582	1178.478221	-591.539995	885.922027	1121.229271	-506.75433	868.5177169999999	1085.020414	-562.555121	1008.940477	1016.672515	-432.53565	914.685132	839.278228	-150.138794	871.046204	1184.518188	-54.341094	
121	1.25	1025.396529	987.9713829999999	-209.496771	850.303624	1041.976311	-361.924684	856.924261	1046.649349	-266.067299	800.848601	595.0534249999999	-195.763834	1007.168344	827.605003	-495.473408	1105.055735	753.569536	-471.641519	1097.878913	631.999103	-431.72768	631.657232	468.719165	-259.902834	571.540922	507.294508	-196.822573	505.202546	488.359037	-257.285004	1225.083399	450.317302	-348.137754	1211.986088	366.168685	-421.4575	1257.241301	284.519023	-343.159153	367.755409	599.678854	-249.265467	285.421175	410.088536	-299.69709	262.600042	430.75239	-207.924233	1207.59809	105.174037	-342.68638	1390.248015	201.437148	-305.939833	1399.194174	168.974095	-390.788644	943.797758	1463.974054	-513.778609	1009.815487	1466.221155	-136.562472	1029.51984	1451.483541	-313.119849	903.616091	1510.613222	-327.789194	973.1332200000001	1341.104097	-65.709563	897.5125880000001	1338.629131	-60.486735	944.808891	1268.799045	-22.065168	917.233744	1203.371747	4.133511	841.45213	1381.606862	-570.3841210000001	767.313204	1368.334483	-546.816805	799.207903	1307.25691	-591.658138	723.62485	1263.481045	-610.064401	696.263809	1268.219038	-527.939621	1010.894996	1149.392956	-64.356751	1064.576863	1105.926391	-164.45897	1069.330859	1053.830203	-116.758244	811.0234850000001	1168.374143	-593.391433	893.449712	1112.274743	-508.403819	876.346874	1075.760528	-564.160846	1007.17653	1012.637093	-432.888352	918.730566	832.319976	-149.476322	863.616476	1182.115813	-56.671645	
122	1.258333	1025.181149	983.23217	-210.412629	849.106612	1035.990864	-361.263033	855.811505	1039.56143	-265.162604	811.015947	584.901417	-193.59043	1005.332645	822.232105	-493.473422	1101.779423	748.486393	-469.202971	1092.903302	625.19708	-431.112617	645.215929	467.489565	-256.606539	587.831873	510.82971	-195.146936	521.176405	497.620247	-255.776255	1214.53726	439.417026	-347.042592	1198.888616	355.103931	-419.590984	1241.718934	272.49835	-341.267071	392.734325	619.624007	-251.313657	297.360733	434.678736	-296.167311	277.478628	458.954709	-204.431521	1186.01059	97.389943	-338.029993	1372.646369	185.427346	-306.014716	1378.614428	151.17609	-390.67231	946.771673	1458.406376	-515.295623	1008.764573	1460.461288	-136.977236	1030.163068	1445.791762	-313.442567	904.536834	1506.076891	-329.589469	968.467524	1336.142085	-66.554317	892.863615	1335.837726	-62.427079	937.83596	1263.949441	-24.147929	908.091916	1199.729915	2.810284	845.57764	1373.205227	-572.783785	771.470265	1358.493337	-550.359815	805.611129	1297.057973	-593.470097	730.674363	1251.989472	-612.29639	702.50055	1256.975141	-530.438385	1000.668564	1139.276569	-61.746076	1054.829537	1089.619812	-158.878168	1055.846878	1039.065512	-109.316885	818.63261	1157.32684	-595.335314	901.384152	1102.563047	-509.962311	884.608167	1065.647389	-565.57112	1005.581181	1007.588976	-433.91061	921.750225	824.861522	-148.904365	855.308352	1179.292426	-58.929607	
123	1.266667	1024.279736	977.397834	-211.068673	847.94192	1029.076963	-360.472516	854.018178	1031.571073	-263.672694	821.563203	574.804358	-191.353848	1003.213728	816.483962	-491.531902	1098.804335	743.824196	-466.272063	1087.849613	617.48027	-431.397511	660.539703	465.450823	-253.006146	605.933086	513.811429	-192.879527	539.361371	505.118399	-253.933655	1203.672637	427.035876	-346.473973	1182.902014	342.955763	-417.759759	1224.810741	259.458339	-339.59579	419.457284	636.864311	-253.625457	313.776001	456.21966	-292.752169	296.254179	483.854626	-201.315865	1161.512825	92.971504	-334.250387	1352.361065	164.948262	-304.29186	1355.425191	130.14302	-388.939301	949.919794	1451.982044	-516.708037	1007.23055	1453.997236	-137.03407	1030.802571	1439.505947	-313.620703	905.507877	1500.829297	-331.252286	963.332365	1330.232518	-67.324866	887.836193	1332.229966	-64.130017	930.218805	1258.317074	-26.442679	898.2011659999999	1195.666795	1.496751	850.194308	1363.836343	-575.161852	776.018728	1347.739707	-554.2694310000001	812.4425670000001	1285.955847	-595.3858300000001	738.227938	1239.689949	-614.8479589999999	709.126338	1244.96715	-533.2729869999999	989.349002	1128.770282	-58.754542	1043.41628	1072.490655	-152.705643	1040.971696	1024.08251	-101.024544	826.667741	1145.449549	-597.3083350000001	909.656985	1092.203597	-511.291177	893.328545	1054.822368	-566.69889	1004.227066	1001.426033	-435.504284	924.158155	816.639653	-148.495572	846.243509	1176.056036	-61.166514	
